<?xml version="1.0" encoding="UTF-8"?>
<svg id="Layer_2" data-name="Layer 2" xmlns="http://www.w3.org/2000/svg" viewBox="0 0 391 391.02">
  <defs>
    <style>
      .cls-1 {
        fill: #dfdbce;
        stroke-width: 0px;
      }
    </style>
  </defs>
  <g id="Staging_Spaces_Logo_Beige">
    <path class="cls-1" d="M391,195.59c-.09,107.81-87.7,195.53-195.17,195.43C87.3,390.93-.12,303.44,0,195.04.12,87.01,88.03-.21,196.58,0c107.11.21,194.51,88.14,194.42,195.59ZM375.81,195.43c.1-99.32-80.53-180.31-179.45-180.69C96.27,14.36,15.25,95.04,14.78,194.3c-.06,11.93,1,23.74,3.27,35.44,2.26,11.68,5.64,23.03,10.17,34.04,4.54,11.02,10.09,21.49,16.69,31.41,6.57,9.88,14.15,18.91,22.34,27.49,2.81,2.94,18.99,16.84,27.11,22.32,9.88,6.66,20.3,12.31,31.29,16.91,10.98,4.59,22.29,8.07,33.97,10.4,11.69,2.33,23.49,3.51,35.41,3.53,99.75.2,180.79-80.7,180.79-180.41ZM112.47,324.35h-6.41c1.08-3.72,2.09-7.3,3.15-10.87,8.51-28.65,16.95-57.32,25.61-85.92,2.01-6.65-.26-11.55-4.88-15.93-.42-.4-.99-.68-1.54-.89-10.49-3.88-20.6-8.68-29.89-14.83-8.61-5.7-16.8-12.11-24.62-18.86-3.86-3.34-6.79-8.06-6.07-13.79.59-4.73,3.03-8.54,7-11.14,2.34-1.53,6.12-.38,8.21,1.8,4.76,4.95,9.21,10.31,14.52,14.6,9.02,7.28,19.48,11.89,30.71,15,9.41,2.61,18.89,4.72,28.5,6.36.53.09,1.6-.42,1.72-.85,1.48-5.26,2.84-10.56,4.29-16.08-2.8-.28-5.42-.51-8.04-.81-23.71-2.76-42.72-22.21-44.96-45.99-1.84-19.55,9.08-38.96,27.24-48.44,7.96-4.16,16.46-6.2,25.42-6.22,20.99-.04,41.98.02,62.96-.02,14.8-.03,27.77,4.65,38.63,14.82,19.89,18.63,20.64,50.24,1.72,69.84-10.09,10.45-22.42,15.82-36.87,16.51-.79.04-1.58.12-2.69.21,1.52,5.82,2.99,11.45,4.54,17.37,3.31-.6,6.49-1.2,9.69-1.75,10.55-1.82,20.87-4.68,30.85-8.44,10.91-4.11,20.66-10.25,28.49-19.11,2.21-2.5,4.45-4.98,6.74-7.41,2.37-2.5,6.8-2.76,9.26-.41,3.21,3.08,5.78,6.82,5.73,11.31-.03,2.68-1.32,5.61-2.81,7.94-1.83,2.87-4.2,5.54-6.79,7.77-14.14,12.25-29.85,22.03-47.2,29.06-4.55,1.84-7.63,4.87-9.77,9.15-1.45,2.91-.79,5.82.02,8.6,5.45,18.7,11.03,37.36,16.58,56.03,4.06,13.68,8.13,27.36,12.32,41.43-2.15,0-4.16.08-6.14-.07-.37-.03-.75-1-.98-1.59-5.62-14.7-11.23-29.41-16.82-44.13-6.12-16.09-12.2-32.18-18.34-48.26-1.34-3.5-4.25-5.46-7.7-6.02-4.45-.72-9-1.05-13.51-1.07-19.32-.08-38.63.01-57.95.04-3.53,0-7.02.53-9.94,2.53-1.67,1.14-3.43,2.79-4.13,4.61-11.61,30.19-23.06,60.45-34.55,90.69-.4,1.06-.85,2.1-1.31,3.22ZM166.83,191.22c18.56,1.3,36.76,1.31,55.3,0-1.34-6.35-2.6-12.31-3.9-18.49-.68,0-1.4,0-2.12,0-14.16,0-28.31.05-42.47-.05-2.21-.02-3.17.37-3.55,2.81-.8,5.12-2.07,10.17-3.26,15.73Z"/>
  </g>
</svg>